<svg width="42" height="42" viewBox="0 0 42 42" fill="none" xmlns="http://www.w3.org/2000/svg">
<path d="M25.7916 31.6954V39.8684C25.7916 41.1205 27.0281 41.0857 27.6463 40.9118C29.1638 40.9118 45.5192 32.7388 39.7864 14.306C35.8383 1.61179 20.7332 -0.243082 15.0004 1.61179C10.2231 3.46665 0.735854 9.99347 1.00563 21.2618C1.34286 35.3472 13.9888 40.9118 15.0004 40.9118C15.8098 40.9118 16.2369 40.2162 16.3493 39.8684V36.7383C11.291 37.26 9.26762 34.8255 9.09901 33.956C8.93039 33.0866 8.08733 31.3476 6.73843 30.4782C5.65932 29.7826 6.2888 29.6087 6.73843 29.6087C7.46908 29.4348 9.23389 29.6087 10.4479 31.6954C11.6619 33.7821 15.0004 33.8401 16.5179 33.6082V30.8259C3.83831 27.4872 6.56982 16.3928 9.77344 13.4366C9.2114 11.5817 8.49199 7.73285 10.1107 7.17639C11.7293 6.61993 14.8318 8.68347 16.1807 9.7848C20.4972 8.67188 24.6113 9.32108 26.1288 9.7848C27.3653 8.50957 30.2092 6.20258 31.693 7.17639C33.1768 8.15019 32.7609 11.7556 32.3674 13.4366C38.7747 21.4357 33.0419 29.9565 25.1171 30.8259C25.5218 30.9651 25.7354 31.4636 25.7916 31.6954Z" fill="black" stroke="black"/>
</svg>
