<svg width="40" height="41" viewBox="0 0 40 41" fill="none" xmlns="http://www.w3.org/2000/svg">
<rect y="0.129822" width="40" height="40" rx="11" fill="black"/>
<path d="M5.78517 35.1711V15.8323C5.78517 15.0389 6.33613 14.8405 6.61162 14.8405H11.5703C12.2315 14.8405 12.3967 15.3915 12.3967 15.667V35.0058C12.3967 35.667 11.8458 35.8323 11.5703 35.8323H6.61162C5.95046 35.8323 5.78517 35.3915 5.78517 35.1711Z" fill="white"/>
<path d="M15.3719 35.0058V15.667C15.3719 15.3915 15.4711 14.8405 15.8678 14.8405H21.1571C21.8182 14.8405 21.9835 15.3915 21.9835 15.667V17.1546C23.1736 14.51 27.989 14.2896 30.248 14.51C34.7108 15.3364 35.8678 20.791 35.8678 23.2703V35.1711C35.8678 35.7001 35.5372 35.8323 35.3719 35.8323H29.4215C29.0248 35.8323 28.9257 35.3915 28.9257 35.1711V23.6009C28.9257 22.4439 28.2645 20.1298 25.6199 20.1298C22.9753 20.1298 22.0937 22.4439 21.9835 23.6009V35.1711C21.9835 35.7001 21.6529 35.8323 21.4877 35.8323H16.0331C15.5042 35.8323 15.3719 35.2813 15.3719 35.0058Z" fill="white"/>
<path d="M9.09097 13.0224C6.04964 13.0224 4.95871 10.543 4.79342 9.05542C4.73833 7.73311 5.52072 4.72485 9.09097 4.59262C12.6612 4.46039 13.4223 7.62292 13.3885 9.05542C13.2019 10.543 12.1323 13.0224 9.09097 13.0224Z" fill="white"/>
</svg>
